<?xml version="1.0" encoding="UTF-8"?>
<svg id="_Слой_1" data-name="Слой 1" xmlns="http://www.w3.org/2000/svg" viewBox="0 0 570.7 518.54">
  <defs>
    <style>
      .cls-1 {
        fill: #1d1e1b;
      }
    </style>
  </defs>
  <g>
    <path class="cls-1" d="m0,472.23v-3.61h20.84v-131.72H0v-3.61h123.55v37.98h-4.52c0-6.61-1.18-12.51-3.53-17.69-2.35-5.19-6.21-9.26-11.58-12.23-5.36-2.96-12.56-4.44-21.59-4.44h-39.37v131.72h36.93c10.58,0,18.87-1.54,24.9-4.63,6.02-3.09,10.29-7.47,12.79-13.15,2.51-5.68,3.76-12.45,3.76-20.29h4.52v41.69H0Zm79.66-51.6c0-4.14-1.01-7.56-3.01-10.28-2.01-2.72-4.73-4.75-8.17-6.11-3.43-1.36-7.35-2.04-11.75-2.04h-19.34v-3.61h19.34c4.4,0,8.32-.62,11.75-1.85,3.44-1.23,6.16-3.15,8.17-5.74,2.01-2.59,3.01-5.96,3.01-10.1h4.52v39.74h-4.52Z"/>
    <path class="cls-1" d="m192.35,473.99c-8.11,0-15.79-1.76-23.04-5.28-7.26-3.52-13.18-8.59-17.77-15.19-4.59-6.61-6.89-14.54-6.89-23.81s2.3-17.21,6.89-23.85c4.59-6.64,10.52-11.73,17.77-15.29,7.26-3.55,14.94-5.33,23.04-5.33,9.42,0,17.29,2.61,23.62,7.83,6.33,5.22,10.77,12.21,13.32,20.98v-77.16h-15.17v-3.61h36.13v135.34h15.05v3.61h-36.01v-26.86c-2.55,8.77-6.99,15.73-13.32,20.89-6.33,5.16-14.2,7.74-23.62,7.74Zm4.05-5c5.79,0,11.17-1.54,16.15-4.63,4.98-3.09,9.01-7.55,12.1-13.39,3.09-5.83,4.63-12.92,4.63-21.26s-1.54-15.44-4.63-21.31c-3.09-5.87-7.12-10.36-12.1-13.48-4.98-3.12-10.36-4.68-16.15-4.68s-11.12,1.58-15.29,4.73c-4.17,3.15-7.31,7.66-9.44,13.52-2.12,5.87-3.18,12.94-3.18,21.21s1.06,15.33,3.18,21.17c2.12,5.84,5.27,10.31,9.44,13.43,4.17,3.12,9.26,4.68,15.29,4.68Z"/>
    <path class="cls-1" d="m317.68,387.01v81.61h15.17v3.61h-51.06v-3.61h15.05v-78h-15.05v-3.62h35.9Zm-10.31-32.79c-3.86,0-7.14-1.1-9.84-3.29-2.7-2.19-4.05-4.83-4.05-7.92s1.35-5.63,4.05-7.83c2.7-2.19,5.98-3.29,9.84-3.29s7.04,1.1,9.78,3.29c2.74,2.19,4.11,4.8,4.11,7.83s-1.35,5.73-4.05,7.92c-2.7,2.19-5.98,3.29-9.84,3.29Z"/>
    <path class="cls-1" d="m384.83,387.01v81.61h16.44v3.61h-51.87v-3.61h15.17v-78h-15.17v-3.62h35.43Zm-2.66,45.48c0-5.43.71-10.93,2.14-16.49,1.43-5.56,3.59-10.65,6.48-15.29,2.89-4.63,6.52-8.37,10.88-11.21,4.36-2.84,9.51-4.26,15.46-4.26,4.24,0,7.87.65,10.88,1.95,3.01,1.3,5.29,3,6.83,5.1,1.54,2.1,2.31,4.35,2.31,6.76,0,3.15-1.2,5.82-3.59,8.01-2.39,2.19-5.6,3.29-9.61,3.29s-7.35-.91-9.78-2.73c-2.43-1.82-3.65-4.12-3.65-6.9,0-3.46,1.41-6.05,4.23-7.78,2.82-1.73,5.88-2.59,9.2-2.59,2.39,0,4.58.39,6.54,1.16,1.97.78,3.53,1.81,4.69,3.1,1.16,1.3,1.74,2.78,1.74,4.45h-4.52c0-1.91-.72-3.64-2.14-5.19-1.43-1.54-3.34-2.75-5.73-3.61-2.39-.86-5.02-1.3-7.87-1.3-4.63,0-8.9,1.25-12.79,3.75-3.9,2.5-7.28,5.87-10.13,10.1-2.86,4.23-5.06,8.92-6.6,14.08-1.54,5.16-2.31,10.36-2.31,15.61h-2.66Z"/>
    <path class="cls-1" d="m519.52,518.54v-3.61h15.17v-69.57c-2.55,8.77-6.99,15.73-13.32,20.89-6.33,5.16-14.2,7.74-23.62,7.74-8.11,0-15.79-1.76-23.04-5.28-7.26-3.52-13.18-8.59-17.77-15.19-4.59-6.61-6.89-14.54-6.89-23.81s2.3-17.21,6.89-23.85c4.59-6.64,10.52-11.73,17.77-15.29,7.26-3.55,14.94-5.33,23.04-5.33,9.42,0,17.29,2.61,23.62,7.83,6.33,5.22,10.77,12.21,13.32,20.98v-27.05h36.01v3.62h-15.05v124.31h15.05v3.61h-51.18Zm-17.72-49.56c5.79,0,11.17-1.54,16.15-4.63,4.98-3.09,9.01-7.55,12.1-13.39,3.09-5.83,4.63-12.92,4.63-21.26s-1.54-15.44-4.63-21.31c-3.09-5.87-7.12-10.36-12.1-13.48-4.98-3.12-10.36-4.68-16.15-4.68s-11.12,1.58-15.29,4.73c-4.17,3.15-7.31,7.66-9.44,13.52-2.12,5.87-3.18,12.94-3.18,21.21s1.06,15.33,3.18,21.17c2.12,5.84,5.27,10.31,9.44,13.43,4.17,3.12,9.26,4.68,15.29,4.68Z"/>
  </g>
  <g>
    <g id="Outer_Circle" data-name="Outer Circle">
      <path id="Outer_Circle-2" data-name="Outer Circle" class="cls-1" d="m285.93,296.77c-39.63,0-76.9-15.43-104.92-43.46-28.03-28.03-43.46-65.29-43.46-104.92s15.43-76.9,43.46-104.92C209.03,15.43,246.29,0,285.93,0s76.9,15.43,104.92,43.46c28.03,28.03,43.46,65.29,43.46,104.92s-15.43,76.9-43.46,104.92c-28.03,28.03-65.29,43.46-104.92,43.46Zm0-282.63c-74.02,0-134.24,60.22-134.24,134.24s60.22,134.24,134.24,134.24,134.24-60.22,134.24-134.24S359.95,14.14,285.93,14.14Z"/>
    </g>
    <g id="Line">
      <rect id="Line-2" data-name="Line" class="cls-1" x="217.01" y="141.31" width="137.82" height="14.14"/>
    </g>
    <g id="Inside_Circlw" data-name="Inside Circlw">
      <path id="Left_side" data-name="Left side" class="cls-1" d="m175.47,148.43c0,49.77,33.54,93.6,81.57,106.6l2.97.8v-14.41l-1.69-.5c-40.59-12.07-68.94-50.1-68.94-92.49s28.35-80.51,68.94-92.58l1.69-.5v-14.41l-2.97.8c-48.03,12.99-81.57,56.87-81.57,106.69Z"/>
      <g>
        <path class="cls-1" d="m373.08,107.15h15.26c-12.7-31.41-39.5-56.18-73.62-65.42l-2.97-.8v14.41l1.69.5c26.69,7.94,48.1,27.08,59.65,51.31Z"/>
        <path class="cls-1" d="m373.09,189.61c-11.55,24.22-32.96,43.4-59.66,51.4l-1.68.5v14.32l2.97-.8c34.14-9.24,60.95-34.02,73.64-65.42h-15.26Z"/>
      </g>
    </g>
  </g>
</svg>