<svg xmlns="http://www.w3.org/2000/svg" version="1.1" xmlns:xlink="http://www.w3.org/1999/xlink" xmlns:svgjs="http://svgjs.dev/svgjs" width="2000" height="1500" viewBox="0 0 2000 1500"><rect width="2000" height="1500" fill="#efefef"></rect><g transform="matrix(0.75,0,0,0.75,249.090909090909,278.98548387096776)"><svg viewBox="0 0 396 248" data-background-color="#efefef" preserveAspectRatio="xMidYMid meet" height="1252" width="2000" xmlns="http://www.w3.org/2000/svg" xmlns:xlink="http://www.w3.org/1999/xlink"><g id="tight-bounds" transform="matrix(1,0,0,1,0.2400000000000091,0.4000000000000057)"><svg viewBox="0 0 395.52 247.2" height="247.2" width="395.52"><g><svg></svg></g><g><svg viewBox="0 0 395.52 247.2" height="247.2" width="395.52"><g transform="matrix(1,0,0,1,128.71347772925765,47.215199999999996)"><svg viewBox="0 0 138.09304454148472 152.7696" height="152.7696" width="138.09304454148472"><g><svg viewBox="0 0 138.09304454148472 152.7696" height="152.7696" width="138.09304454148472"><g><svg viewBox="0 0 138.09304454148472 152.7696" height="152.7696" width="138.09304454148472"><g><svg viewBox="0 0 138.09304454148472 152.7696" height="152.7696" width="138.09304454148472"><g id="textblocktransform"><svg viewBox="0 0 138.09304454148472 152.7696" height="152.7696" width="138.09304454148472" id="textblock"><g><svg viewBox="0 0 138.09304454148472 152.7696" height="152.7696" width="138.09304454148472"><g transform="matrix(1,0,0,1,0,0)"><svg width="138.09304454148472" viewBox="0.49 -33.54 30.32 33.54" height="152.7696" data-palette-color="#d94e28"><path d="M30.81-33.54L30.81-31.4 28.1-30.91 18.04-14.26 18.04-3.44Q18.04-3.08 18.31-2.73 18.58-2.39 19.09-2.34L19.09-2.34 22.29-2.15 22.29 0 8.79 0 8.79-2.15 11.89-2.34Q12.43-2.39 12.71-2.73 12.99-3.08 12.99-3.44L12.99-3.44 12.99-13.5 3.39-30.81 0.49-31.4 0.49-33.54 12.35-33.54 12.35-31.4 9.84-31.15Q9.16-31.05 9.16-30.57L9.16-30.57Q9.16-30.32 9.25-30.15L9.25-30.15 16.31-17.09 24.05-30Q24.15-30.18 24.15-30.35L24.15-30.35Q24.15-30.96 23.46-31.05L23.46-31.05 20.65-31.4 20.65-33.54 30.81-33.54Z" opacity="1" transform="matrix(1,0,0,1,0,0)" fill="#d94e28" class="wordmark-text-0" data-fill-palette-color="primary" id="text-0"></path></svg></g></svg></g></svg></g></svg></g></svg></g></svg></g></svg></g><path d="M84.505 41.215L84.505 0 331.705 0 331.705 247.2 84.505 247.2 84.505 205.985 98.282 205.985 98.282 233.423 317.928 233.423 317.928 13.777 98.282 13.777 98.282 41.215Z" fill="#d94e28" stroke="transparent" data-fill-palette-color="tertiary"></path></svg></g><defs></defs></svg><rect width="395.52" height="247.2" fill="none" stroke="none" visibility="hidden"></rect></g></svg></g></svg>